<svg width="742" height="212" viewBox="0 0 742 212" fill="none" xmlns="http://www.w3.org/2000/svg">
<path d="M0.0200043 127.594C0.0200043 80.0041 31.9 43.634 71.41 43.634C92.06 43.634 103.51 57.324 111.81 57.324C116.75 57.324 119.45 53.9541 120.34 45.8741H122.59V104.914H120.34C116.53 79.3241 99.24 45.8741 71.41 45.8741C40.43 45.8741 31.67 82.6941 31.67 127.594C31.67 172.494 40.43 209.304 71.41 209.304C87.57 209.304 98.57 198.754 98.57 179.894V137.464H78.14V135.214H138.75V137.464H125.28V209.304H123.03C122.13 199.424 118.31 195.164 112.25 195.164C102.82 195.164 90.92 211.554 71.39 211.554C30.53 211.554 0 176.534 0 127.594H0.0200043Z" fill="url(#paint0_linear_1723_42)"/>
<path d="M154.49 176.304V103.794H141.69V101.544H182.09V181.914C182.09 199.204 187.7 205.034 197.8 205.034C204.31 205.034 212.84 201.664 219.58 189.764V103.784H205.89V101.534H247.2V207.044H260.89V209.294H250.11C241.13 209.294 229.01 209.744 220.02 211.544V193.584C212.39 205.254 201.39 211.544 187.25 211.544C167.5 211.544 154.48 201.214 154.48 176.294L154.49 176.304Z" fill="url(#paint1_linear_1723_42)"/>
<path d="M326.68 195.394C319.72 205.494 310.07 211.104 296.6 211.104C278.64 211.104 267.19 202.124 267.19 185.514C267.19 167.104 280.66 157.904 308.5 152.744L326.01 149.374V123.104C326.01 107.834 319.05 101.554 307.6 101.554C295.48 101.554 287.17 106.944 287.17 110.984C287.17 115.474 297.5 117.264 297.5 127.144C297.5 133.874 292.34 139.264 285.6 139.264C278.86 139.264 272.58 133.874 272.58 124.894C272.58 110.074 290.99 99.3041 310.07 99.3041C338.13 99.3041 353.85 110.304 353.85 133.204V197.404C353.85 202.344 355.42 204.584 358.56 204.584C362.15 204.584 364.62 201.894 366.87 198.304L368.66 199.654C366.41 203.244 360.36 211.104 346.66 211.104C333.86 211.104 328.03 203.474 326.68 195.394ZM308.95 203.924C315.23 203.924 320.85 200.104 326.01 192.024V151.844L317.48 153.644C300.87 156.784 294.14 166.664 294.14 182.374C294.14 195.844 299.53 203.924 308.95 203.924Z" fill="url(#paint2_linear_1723_42)"/>
<path d="M370.92 207.064H384.39V103.804H370.92V101.554H381.7C390.68 101.554 402.8 101.104 411.78 99.3041V119.064C416.49 108.964 426.82 99.3041 439.84 99.3041C451.06 99.3041 458.25 107.614 458.25 116.364C458.25 125.564 451.51 132.074 443.66 132.074C436.48 132.074 431.09 126.684 431.09 119.504C431.09 112.774 435.58 111.194 435.58 108.054C435.58 106.704 434.45 105.354 431.54 105.354C425.26 105.354 415.6 112.984 412.23 124.434V207.044H430.19V209.294H370.93V207.044L370.92 207.064Z" fill="url(#paint3_linear_1723_42)"/>
<path d="M519.31 195.394C512.35 205.494 502.7 211.104 489.23 211.104C471.27 211.104 459.82 202.124 459.82 185.514C459.82 167.104 473.29 157.904 501.13 152.744L518.64 149.374V123.104C518.64 107.834 511.68 101.554 500.23 101.554C488.11 101.554 479.8 106.944 479.8 110.984C479.8 115.474 490.13 117.264 490.13 127.144C490.13 133.874 484.97 139.264 478.23 139.264C471.49 139.264 465.21 133.874 465.21 124.894C465.21 110.074 483.62 99.3041 502.7 99.3041C530.76 99.3041 546.48 110.304 546.48 133.204V197.404C546.48 202.344 548.05 204.584 551.19 204.584C554.78 204.584 557.25 201.894 559.5 198.304L561.29 199.654C559.04 203.244 552.99 211.104 539.29 211.104C526.49 211.104 520.66 203.474 519.31 195.394ZM501.58 203.924C507.86 203.924 513.48 200.104 518.64 192.024V151.844L510.11 153.644C493.5 156.784 486.77 166.664 486.77 182.374C486.77 195.844 492.16 203.924 501.58 203.924Z" fill="url(#paint4_linear_1723_42)"/>
<path d="M630.22 207.064H642.12V128.944C642.12 111.654 636.73 105.824 626.63 105.824C619.9 105.824 611.59 109.194 604.86 121.094V207.074H616.98V209.324H563.55V207.074H577.02V103.814H563.55V101.564H574.33C583.31 101.564 595.43 101.114 604.41 99.314V117.274C612.05 105.604 623.04 99.314 637.41 99.314C656.72 99.314 669.96 109.644 669.96 134.564V207.074H682.53V209.324H630.22V207.074V207.064Z" fill="url(#paint5_linear_1723_42)"/>
<path d="M686.58 207.064H700.27V103.804H686.58V101.554H697.58C706.56 101.554 719.13 101.104 728.11 98.4141V207.064H741.58V209.314H686.58V207.064ZM698.48 59.794C698.48 51.264 705.22 44.5341 713.52 44.5341C721.82 44.5341 728.56 51.264 728.56 59.794C728.56 68.324 721.83 74.614 713.52 74.614C705.21 74.614 698.48 68.104 698.48 59.794Z" fill="url(#paint6_linear_1723_42)"/>
<path d="M210.12 90.9741C206.59 90.9741 204.83 88.7241 204.83 84.2341C204.83 76.9241 209.01 67.4941 217.38 55.9541C215.53 55.1641 214.41 54.3441 214.01 53.5141C213.61 52.6841 213.42 51.8141 213.42 50.9341C213.42 48.2041 214.08 46.8341 215.41 46.8341C216.74 46.8341 218.05 48.3741 219.37 51.4641L220.29 52.1241C222.05 49.8341 223.93 47.5441 225.91 45.2541C227.89 42.9641 230.03 40.6241 232.32 38.2541L245.13 25.3041C244.69 24.8641 244.47 24.4641 244.47 24.1141C244.47 23.0541 245.66 21.8241 248.04 20.4141C251.13 18.6541 252.67 17.7241 252.67 17.6341C253.63 16.5741 255.44 16.0541 258.08 16.0541C259.57 16.0541 260.55 16.4041 260.99 17.1141C261.08 17.2041 261.12 17.3341 261.12 17.5141C261.12 18.3041 260.37 19.3241 258.88 20.5541C252.01 26.2841 245.73 31.8941 240.05 37.4041C234.37 42.9141 229.24 48.4341 224.66 53.9841C226.86 54.6041 229.68 54.9041 233.12 54.9041C235.41 54.9041 237.88 54.7541 240.52 54.4441C243.16 54.1341 246.03 53.6741 249.11 53.0541C253.6 52.1741 258.2 50.7841 262.92 48.8941C267.63 47.0041 272.01 44.6841 276.07 41.9541C280.12 39.2241 283.4 36.1641 285.91 32.7741C288.42 29.3841 289.68 25.7941 289.68 22.0041C289.68 18.2141 288.69 15.0941 286.7 12.6241C284.72 10.1641 282.05 8.24408 278.71 6.87408C275.36 5.50408 271.57 4.56408 267.34 4.03408C263.11 3.50408 258.75 3.24407 254.26 3.24407C250.83 3.24407 247.04 3.59407 242.9 4.30407C238.75 5.01407 234.64 6.02408 230.54 7.34408C226.45 8.66408 222.7 10.2741 219.31 12.1641C215.92 14.0641 213.19 16.2141 211.12 18.6441C209.05 21.0641 208.01 23.6841 208.01 26.5041C208.01 28.5341 208.58 30.3841 209.72 32.0541C210.95 33.7341 212.32 34.7441 213.81 35.0941C215.4 35.4441 216.19 36.0641 216.19 36.9441C216.19 37.6541 215.58 37.8741 214.34 37.6041C212.58 37.2541 210.88 36.4641 209.25 35.2241C207.62 33.9941 206.3 32.5141 205.28 30.7941C204.26 29.0741 203.76 27.3841 203.76 25.7041C203.76 21.5641 205.19 17.9341 208.05 14.8041C210.91 11.6741 214.64 9.05409 219.22 6.94409C223.8 4.82409 228.71 3.17406 233.95 1.98406C239.19 0.794064 244.23 0.154081 249.08 0.0640814C254.63 -0.115919 260.09 0.0840777 265.46 0.654078C270.84 1.22408 275.7 2.30407 280.06 3.89407C284.42 5.48407 287.9 7.64408 290.5 10.3741C293.1 13.1041 294.4 16.5441 294.4 20.6841C294.4 25.0941 293.01 29.2141 290.23 33.0441C287.46 36.8741 283.82 40.3141 279.33 43.3541C274.84 46.3941 269.99 48.9741 264.8 51.0841C259.6 53.1941 254.58 54.7441 249.73 55.7041C246.11 56.4141 242.66 56.9441 239.35 57.2941C236.05 57.6441 232.9 57.8241 229.91 57.8241C228.23 57.8241 226.74 57.7841 225.42 57.6941C224.09 57.6041 222.95 57.4741 221.98 57.2941C212.2 69.5341 207.31 78.6141 207.31 84.5141C207.31 86.8941 208.37 88.0841 210.48 88.0841C211.19 88.0841 211.67 88.0441 211.93 87.9541C213.43 87.1641 214.66 86.7641 215.63 86.7641C216.42 86.7641 216.82 87.0341 216.82 87.5541C216.82 88.3441 215.5 89.3641 212.85 90.5941C211.79 90.8641 210.87 90.994 210.08 90.994L210.12 90.9741Z" fill="#B2702A"/>
<path d="M301.95 78.684C299.93 78.684 298.91 77.494 298.91 75.114C298.91 73.444 299.52 71.284 300.76 68.634C303.93 62.734 309.17 56.6541 316.49 50.4041C325.39 43.0041 332.61 39.304 338.16 39.304C341.59 39.304 343.97 39.9641 345.29 41.2841C347.31 39.7841 349.47 39.0341 351.77 39.0341C352.21 39.0341 352.43 39.1641 352.43 39.4341C352.43 39.6141 352.34 39.7841 352.16 39.9641C350.93 41.3741 349.54 43.264 348 45.644C346.46 48.024 344.81 50.974 343.04 54.494C338.9 62.604 336.83 68.544 336.83 72.334C336.83 73.214 336.88 73.744 336.97 73.924V74.054C336.97 74.584 336.7 75.2241 336.17 75.9741C335.64 76.7241 335.11 77.0941 334.59 77.0941C333.53 77.0941 333 75.334 333 71.804C333 65.814 334.37 60.0941 337.1 54.6241L325.87 64.0041C321.64 67.5241 317.83 70.4141 314.44 72.6641C311.05 74.9141 308.12 76.6041 305.65 77.7541C304.41 78.3741 303.18 78.6741 301.95 78.6741V78.684ZM307.9 72.604C308.43 72.604 309 72.434 309.61 72.074C310.75 71.634 312.74 70.484 315.56 68.634C318.38 66.784 321.42 64.494 324.68 61.764C328.73 58.414 332.1 55.354 334.79 52.584C337.47 49.814 339.43 47.714 340.67 46.304C340.14 44.804 339.09 44.054 337.5 44.054C334.41 44.054 329.49 46.694 322.7 51.984C315.03 58.154 310.01 63.2141 307.63 67.1841C306.84 68.5941 306.44 69.914 306.44 71.144C306.44 72.114 306.93 72.5941 307.89 72.5941L307.9 72.604Z" fill="#B2702A"/>
<path d="M381.64 78.4241C380.32 78.4241 378.6 78.024 376.49 77.234C373.32 76.004 371.73 74.2441 371.73 71.9441C371.73 71.0641 372.08 69.784 372.79 68.114C373.49 66.614 374.39 64.854 375.49 62.834C376.59 60.814 377.94 58.5141 379.52 55.9641L384.8 47.3741C384.98 46.9341 385.07 46.514 385.07 46.114V44.984C385.07 43.924 384.8 43.2641 384.28 43.0041C382.34 42.1241 381.38 41.3341 381.38 40.6241C381.38 40.2741 381.86 39.964 382.83 39.704C383.97 39.434 385.27 39.224 386.72 39.044C388.17 38.874 389.83 38.734 391.68 38.644C394.76 34.764 397.8 31.064 400.8 27.544C403.88 23.754 406.26 21.424 407.93 20.544C410.49 18.954 413.04 18.1641 415.6 18.1641C416.3 18.1641 416.66 18.254 416.66 18.424C416.66 18.774 416.48 18.994 416.13 19.084C412.78 21.284 409.79 23.6641 407.15 26.2241L398.69 35.8741C398.16 36.4941 397.9 37.0641 397.9 37.5941C397.9 38.3041 398.43 38.7441 399.49 38.9141C399.93 38.9141 400.37 38.8941 400.81 38.8441C401.25 38.8041 401.73 38.774 402.26 38.774C403.23 38.774 404.33 38.7941 405.57 38.8441C406.8 38.8941 408.08 38.954 409.4 39.044C410.19 39.134 410.59 39.354 410.59 39.704C410.59 40.494 409.14 40.9841 406.23 41.1541C404.29 41.1541 400.98 41.4141 396.31 41.9441C395.17 42.1241 393.8 42.734 392.21 43.794C389.22 47.674 386.66 51.594 384.55 55.554C382.43 59.524 380.67 63.4841 379.26 67.4441C378.29 70.1741 377.81 71.984 377.81 72.864C377.81 74.364 378.56 75.114 380.05 75.114C381.29 75.114 382.57 74.8041 383.88 74.1841C384.41 74.0141 385.16 73.614 386.13 72.994C386.66 72.644 387.27 72.2741 387.98 71.8741C388.69 71.4741 389.48 70.974 390.36 70.354C393.71 68.324 395.56 67.3141 395.91 67.3141C396.79 67.3141 397.23 67.6641 397.23 68.3741C397.23 68.9941 396.88 69.5641 396.18 70.0941L391.29 73.794C390.06 74.674 388.76 75.474 387.39 76.174C386.02 76.884 384.63 77.5441 383.23 78.1541C382.7 78.3341 382.17 78.4241 381.64 78.4241Z" fill="#B2702A"/>
<path d="M435.82 79.4741C433.09 79.4741 430.73 78.7641 428.74 77.3541C426.76 75.9441 425.77 74.2741 425.77 72.3341C425.77 71.6341 425.99 70.5341 426.43 69.0341C428.99 61.7241 435.68 53.1741 446.52 43.3941L453.12 41.0141C457.35 39.6041 459.64 38.9441 459.99 39.0341C463.25 39.5641 464.88 40.9241 464.88 43.1341C464.88 47.3641 461.49 51.5441 454.7 55.6841C448.62 59.3841 443.29 61.2341 438.71 61.2341C438.27 61.2341 437.83 61.2141 437.39 61.1641C436.95 61.1241 436.51 61.0541 436.07 60.9641C435.19 62.1941 434.39 63.3441 433.69 64.3941C432.99 65.4541 432.41 66.4641 431.98 67.4341C431.27 69.1141 430.92 70.5241 430.92 71.6641C430.92 74.5741 432.11 76.0241 434.49 76.0241C436.87 76.0241 440.7 74.9641 445.99 72.8541C451.1 70.9141 454.58 69.1941 456.43 67.7041C457.14 67.2641 457.76 67.0441 458.28 67.0441C458.8 67.0441 459.07 67.2641 459.07 67.7041C458.98 68.2341 458.54 68.8041 457.75 69.4241C456.42 70.3941 454.91 71.3841 453.19 72.3941C451.47 73.4041 449.55 74.4941 447.44 75.6341C442.06 78.1941 438.19 79.4641 435.81 79.4641L435.82 79.4741ZM442.82 58.3341C445.99 58.3341 449.35 56.6141 452.86 53.1841C456.21 49.8341 457.88 47.0641 457.88 44.8641C457.88 43.6341 457.31 42.9741 456.17 42.8841C452.38 42.2641 446.7 46.9841 439.12 57.0241C439.99 57.9041 441.23 58.3441 442.82 58.3441V58.3341Z" fill="#B2702A"/>
<path d="M491.19 78.944C488.02 78.944 486.43 77.274 486.43 73.924C486.43 68.724 488.94 63.2241 493.96 57.4041C494.93 56.1741 496.1 54.694 497.46 52.984C498.83 51.264 500.39 49.394 502.15 47.364C502.33 47.364 501.53 47.0541 499.77 46.4341C498.62 46.0841 498.05 45.464 498.05 44.584C498.05 43.524 498.8 43.0041 500.3 43.0041C501.71 43.0041 504.04 42.6041 507.3 41.8141C507.83 41.4641 508.38 41.1141 508.95 40.7541C509.52 40.4041 510.11 40.0541 510.73 39.6941C511.7 39.0741 512.67 38.764 513.64 38.764C514.17 38.764 514.72 38.8741 515.29 39.0941C515.86 39.3141 516.5 39.604 517.21 39.954C518.18 40.484 519.04 40.9441 519.78 41.3441C520.53 41.7441 521.13 42.024 521.57 42.204L535.57 42.074C537.06 42.074 537.82 42.424 537.82 43.134C537.82 43.844 537.07 44.284 535.57 44.454C533.72 44.724 532.04 44.854 530.55 44.854C530.64 45.204 530.7 45.5341 530.75 45.8441C530.79 46.1541 530.82 46.394 530.82 46.574C530.82 49.394 529.14 53.0041 525.8 57.4041C523.07 61.0141 519.98 64.1441 516.55 66.7841C508.8 72.6841 501.83 76.4741 495.67 78.1541C494 78.6841 492.5 78.944 491.18 78.944H491.19ZM492.5 75.774C492.68 75.774 492.87 75.754 493.1 75.704C493.32 75.664 493.6 75.5941 493.95 75.5041C499.77 73.8341 506.33 70.224 513.64 64.674C514.96 63.704 516.26 62.554 517.54 61.234C518.81 59.914 520.07 58.5041 521.31 57.0041C524.21 53.3041 525.67 50.314 525.67 48.024C525.67 46.964 525.36 46.134 524.74 45.514H518.79C516.85 45.514 515.2 45.6641 513.84 45.9741C512.47 46.2841 511.3 46.6541 510.34 47.0941C507.78 49.0341 503.99 52.9141 498.97 58.7241C497.21 60.8441 495.49 63.264 493.82 65.994C491.61 69.604 490.52 72.024 490.52 73.264V73.524C490.52 75.024 491.18 75.774 492.5 75.774Z" fill="#B2702A"/>
<defs>
<linearGradient id="paint0_linear_1723_42" x1="-31.25" y1="127.834" x2="732.74" y2="126.014" gradientUnits="userSpaceOnUse">
<stop stop-color="#B2702A"/>
<stop offset="1" stop-color="#E8BD6D"/>
</linearGradient>
<linearGradient id="paint1_linear_1723_42" x1="-31.1799" y1="157.064" x2="732.81" y2="155.234" gradientUnits="userSpaceOnUse">
<stop stop-color="#B2702A"/>
<stop offset="1" stop-color="#E8BD6D"/>
</linearGradient>
<linearGradient id="paint2_linear_1723_42" x1="-31.18" y1="156.064" x2="732.81" y2="154.244" gradientUnits="userSpaceOnUse">
<stop stop-color="#B2702A"/>
<stop offset="1" stop-color="#E8BD6D"/>
</linearGradient>
<linearGradient id="paint3_linear_1723_42" x1="-31.1802" y1="155.384" x2="732.81" y2="153.564" gradientUnits="userSpaceOnUse">
<stop stop-color="#B2702A"/>
<stop offset="1" stop-color="#E8BD6D"/>
</linearGradient>
<linearGradient id="paint4_linear_1723_42" x1="-31.1798" y1="156.524" x2="732.81" y2="154.704" gradientUnits="userSpaceOnUse">
<stop stop-color="#B2702A"/>
<stop offset="1" stop-color="#E8BD6D"/>
</linearGradient>
<linearGradient id="paint5_linear_1723_42" x1="-31.1799" y1="155.914" x2="732.81" y2="154.094" gradientUnits="userSpaceOnUse">
<stop stop-color="#B2702A"/>
<stop offset="1" stop-color="#E8BD6D"/>
</linearGradient>
<linearGradient id="paint6_linear_1723_42" x1="-31.25" y1="128.734" x2="732.75" y2="126.904" gradientUnits="userSpaceOnUse">
<stop stop-color="#B2702A"/>
<stop offset="1" stop-color="#E8BD6D"/>
</linearGradient>
</defs>
</svg>
